<svg width="59" height="14" viewBox="0 0 59 14" fill="none" xmlns="http://www.w3.org/2000/svg">
<path d="M10.18 13.558C9.748 13.558 9.43 13.426 9.226 13.162C9.022 12.898 8.92 12.58 8.92 12.208C8.92 11.92 8.962 11.632 9.046 11.344C9.142 11.044 9.232 10.756 9.316 10.48C9.4 10.192 9.442 9.94 9.442 9.724C9.442 9.496 9.394 9.34 9.298 9.256C9.202 9.16 9.088 9.112 8.956 9.112C8.668 9.112 8.344 9.34 7.984 9.796C7.624 10.24 7.168 10.882 6.616 11.722C6.424 12.01 6.256 12.304 6.112 12.604C5.968 12.904 5.836 13.168 5.716 13.396C5.608 13.396 5.476 13.384 5.32 13.36C5.176 13.336 5.044 13.294 4.924 13.234C4.804 13.174 4.744 13.096 4.744 13C4.744 12.916 4.798 12.718 4.906 12.406C5.026 12.082 5.158 11.71 5.302 11.29C5.458 10.87 5.596 10.45 5.716 10.03C5.836 9.598 5.896 9.232 5.896 8.932C5.896 8.74 5.86 8.584 5.788 8.464C5.728 8.344 5.62 8.284 5.464 8.284C5.2 8.284 4.882 8.44 4.51 8.752C4.15 9.064 3.772 9.478 3.376 9.994C2.992 10.498 2.62 11.056 2.26 11.668C1.912 12.268 1.63 12.874 1.414 13.486C1.306 13.486 1.168 13.462 1 13.414C0.832 13.378 0.688 13.324 0.568 13.252C0.436 13.192 0.37 13.132 0.37 13.072C0.37 13.024 0.43 12.826 0.55 12.478C0.658 12.13 0.784 11.71 0.928 11.218C1.072 10.714 1.21 10.204 1.342 9.688C1.474 9.172 1.552 8.722 1.576 8.338C1.636 8.23 1.756 8.134 1.936 8.05C2.116 7.954 2.29 7.906 2.458 7.906C2.626 7.906 2.758 7.954 2.854 8.05C2.95 8.146 2.998 8.272 2.998 8.428C2.998 8.572 2.956 8.806 2.872 9.13C2.8 9.454 2.71 9.82 2.602 10.228C2.842 9.856 3.112 9.484 3.412 9.112C3.712 8.728 4.024 8.38 4.348 8.068C4.672 7.756 4.996 7.504 5.32 7.312C5.656 7.12 5.98 7.024 6.292 7.024C6.688 7.024 6.958 7.168 7.102 7.456C7.246 7.744 7.318 8.074 7.318 8.446C7.318 8.698 7.294 8.962 7.246 9.238C7.198 9.502 7.138 9.754 7.066 9.994C6.994 10.234 6.922 10.444 6.85 10.624C7.09 10.204 7.354 9.808 7.642 9.436C7.942 9.052 8.266 8.74 8.614 8.5C8.962 8.26 9.328 8.14 9.712 8.14C10.12 8.14 10.402 8.266 10.558 8.518C10.726 8.758 10.81 9.04 10.81 9.364C10.81 9.676 10.756 10.012 10.648 10.372C10.54 10.732 10.432 11.08 10.324 11.416C10.216 11.752 10.162 12.04 10.162 12.28C10.162 12.424 10.198 12.556 10.27 12.676C10.342 12.796 10.474 12.856 10.666 12.856C11.002 12.856 11.314 12.706 11.602 12.406C11.902 12.094 12.178 11.722 12.43 11.29C12.694 10.846 12.916 10.42 13.096 10.012L13.33 10.318C13.138 10.81 12.892 11.308 12.592 11.812C12.292 12.316 11.938 12.73 11.53 13.054C11.134 13.39 10.684 13.558 10.18 13.558ZM14.7226 13.792C13.9786 13.792 13.4146 13.588 13.0306 13.18C12.6466 12.772 12.4546 12.268 12.4546 11.668C12.4546 11.14 12.5866 10.576 12.8506 9.976C13.1266 9.376 13.4866 8.812 13.9306 8.284C14.3866 7.756 14.8846 7.33 15.4246 7.006C15.9766 6.682 16.5226 6.52 17.0626 6.52C17.3506 6.52 17.6146 6.598 17.8546 6.754C18.1066 6.898 18.2326 7.198 18.2326 7.654C18.2326 8.11 18.1006 8.536 17.8366 8.932C17.5726 9.328 17.2186 9.682 16.7746 9.994C16.3306 10.306 15.8446 10.564 15.3166 10.768C14.8006 10.96 14.2786 11.086 13.7506 11.146C13.7266 11.242 13.7086 11.338 13.6966 11.434C13.6966 11.518 13.6966 11.608 13.6966 11.704C13.6966 11.848 13.7086 12.004 13.7326 12.172C13.7686 12.34 13.8346 12.502 13.9306 12.658C14.0386 12.814 14.1826 12.94 14.3626 13.036C14.5546 13.132 14.8006 13.18 15.1006 13.18C15.6166 13.18 16.1266 13.036 16.6306 12.748C17.1346 12.46 17.6026 12.082 18.0346 11.614C18.4786 11.134 18.8506 10.606 19.1506 10.03L19.4206 10.228C19.0966 10.948 18.6826 11.578 18.1786 12.118C17.6746 12.646 17.1226 13.054 16.5226 13.342C15.9346 13.642 15.3346 13.792 14.7226 13.792ZM13.8766 10.696C14.2006 10.612 14.5606 10.468 14.9566 10.264C15.3526 10.06 15.7366 9.82 16.1086 9.544C16.4806 9.256 16.7866 8.944 17.0266 8.608C17.2666 8.26 17.3866 7.9 17.3866 7.528C17.3866 7.396 17.3626 7.3 17.3146 7.24C17.2666 7.18 17.1706 7.15 17.0266 7.15C16.7506 7.15 16.4506 7.258 16.1266 7.474C15.8146 7.678 15.5086 7.954 15.2086 8.302C14.9206 8.65 14.6566 9.034 14.4166 9.454C14.1766 9.862 13.9966 10.276 13.8766 10.696ZM19.6895 13.846C19.3055 13.846 18.9815 13.72 18.7175 13.468C18.4415 13.216 18.3035 12.832 18.3035 12.316C18.3035 11.896 18.3995 11.44 18.5915 10.948C18.7835 10.444 19.0475 9.952 19.3835 9.472C19.7195 8.98 20.0975 8.536 20.5175 8.14C20.9495 7.744 21.4055 7.426 21.8855 7.186C22.3655 6.946 22.8455 6.826 23.3255 6.826C23.8055 6.826 24.2075 6.952 24.5315 7.204C24.8675 7.456 25.0355 7.792 25.0355 8.212C25.0355 8.512 24.9395 8.722 24.7475 8.842C24.5675 8.962 24.3395 9.016 24.0635 9.004C24.0875 8.896 24.1055 8.788 24.1175 8.68C24.1415 8.572 24.1535 8.464 24.1535 8.356C24.1535 8.092 24.0935 7.864 23.9735 7.672C23.8535 7.468 23.6315 7.366 23.3075 7.366C22.9715 7.366 22.6295 7.486 22.2815 7.726C21.9335 7.954 21.5975 8.26 21.2735 8.644C20.9615 9.028 20.6795 9.448 20.4275 9.904C20.1755 10.348 19.9775 10.786 19.8335 11.218C19.6895 11.65 19.6175 12.04 19.6175 12.388C19.6175 12.832 19.7675 13.054 20.0675 13.054C20.3435 13.054 20.6435 12.922 20.9675 12.658C21.3035 12.394 21.6395 12.064 21.9755 11.668C22.3235 11.26 22.6535 10.84 22.9655 10.408C23.2775 9.976 23.5535 9.592 23.7935 9.256C23.8295 9.184 23.8655 9.148 23.9015 9.148C23.9615 9.16 24.0515 9.184 24.1715 9.22C24.2915 9.256 24.3995 9.31 24.4955 9.382C24.5915 9.454 24.6395 9.544 24.6395 9.652C24.6395 9.76 24.5855 9.91 24.4775 10.102C24.3815 10.282 24.2615 10.492 24.1175 10.732C23.9855 10.96 23.8655 11.194 23.7575 11.434C23.6615 11.674 23.6135 11.896 23.6135 12.1C23.6135 12.28 23.6555 12.454 23.7395 12.622C23.8355 12.778 23.9855 12.856 24.1895 12.856C24.5015 12.856 24.9215 12.628 25.4495 12.172C25.9775 11.704 26.5115 10.984 27.0515 10.012L27.2855 10.246C27.0215 10.894 26.6915 11.47 26.2955 11.974C25.8995 12.466 25.4735 12.85 25.0175 13.126C24.5735 13.402 24.1295 13.54 23.6855 13.54C23.2295 13.54 22.8875 13.396 22.6595 13.108C22.4435 12.832 22.3355 12.532 22.3355 12.208C22.3355 12.148 22.3355 12.088 22.3355 12.028C22.3475 11.968 22.3595 11.902 22.3715 11.83C21.8675 12.49 21.4055 12.988 20.9855 13.324C20.5655 13.672 20.1335 13.846 19.6895 13.846ZM28.1936 13.54C27.6656 13.54 27.2876 13.36 27.0596 13C26.8436 12.64 26.7356 12.196 26.7356 11.668C26.7356 11.092 26.8436 10.408 27.0596 9.616C27.2756 8.824 27.5576 7.99 27.9056 7.114C28.2656 6.238 28.6556 5.386 29.0756 4.558C29.4956 3.718 29.9156 2.962 30.3356 2.29C30.7676 1.606 31.1576 1.06 31.5056 0.651999C31.8656 0.243999 32.1536 0.0399995 32.3696 0.0399995C32.5136 0.0399995 32.6276 0.118 32.7116 0.274C32.8076 0.43 32.8796 0.616 32.9276 0.831999C32.9876 1.036 33.0176 1.228 33.0176 1.408C33.0176 1.732 32.9336 2.158 32.7656 2.686C32.6096 3.202 32.3816 3.778 32.0816 4.414C31.7936 5.05 31.4456 5.698 31.0376 6.358C30.6416 7.006 30.2036 7.63 29.7236 8.23C29.2436 8.818 28.7396 9.328 28.2116 9.76C28.1396 10.084 28.0796 10.396 28.0316 10.696C27.9956 10.996 27.9776 11.278 27.9776 11.542C27.9776 11.998 28.0436 12.334 28.1756 12.55C28.3196 12.766 28.5176 12.874 28.7696 12.874C29.0816 12.874 29.3936 12.736 29.7056 12.46C30.0296 12.172 30.3356 11.812 30.6236 11.38C30.9116 10.936 31.1576 10.48 31.3616 10.012L31.6856 10.174C31.1936 11.218 30.6536 12.04 30.0656 12.64C29.4776 13.24 28.8536 13.54 28.1936 13.54ZM28.4276 8.986C28.8356 8.554 29.2316 8.074 29.6156 7.546C30.0116 7.006 30.3716 6.448 30.6956 5.872C31.0316 5.296 31.3256 4.744 31.5776 4.216C31.8296 3.676 32.0216 3.196 32.1536 2.776C32.2976 2.344 32.3696 2.008 32.3696 1.768C32.3696 1.684 32.3576 1.63 32.3336 1.606C32.3216 1.582 32.3036 1.564 32.2796 1.552C32.1836 1.552 32.0216 1.702 31.7936 2.002C31.5776 2.29 31.3136 2.686 31.0016 3.19C30.7016 3.694 30.3896 4.264 30.0656 4.9C29.7536 5.536 29.4536 6.208 29.1656 6.916C28.8776 7.612 28.6316 8.302 28.4276 8.986ZM32.2123 13.702C31.8163 13.702 31.5403 13.51 31.3843 13.126C31.2283 12.754 31.1503 12.268 31.1503 11.668C31.1503 11.608 31.1563 11.404 31.1683 11.056C31.1803 10.696 31.2103 10.138 31.2583 9.382C31.2703 9.046 31.3003 8.818 31.3483 8.698C31.4083 8.566 31.5823 8.5 31.8703 8.5C32.0983 8.5 32.2363 8.548 32.2843 8.644C32.3443 8.728 32.3743 8.902 32.3743 9.166C32.3743 9.55 32.3503 9.988 32.3023 10.48C32.2543 10.972 32.2303 11.44 32.2303 11.884C32.2303 12.244 32.2543 12.508 32.3023 12.676C32.3623 12.832 32.4703 12.91 32.6263 12.91C32.8423 12.91 33.0763 12.79 33.3283 12.55C33.5923 12.31 33.8563 11.998 34.1203 11.614C34.3963 11.218 34.6543 10.798 34.8943 10.354C35.1343 9.91 35.3503 9.478 35.5423 9.058C35.5663 8.242 35.6563 7.702 35.8123 7.438C35.9683 7.162 36.1663 7.024 36.4063 7.024C36.6583 7.024 36.8323 7.114 36.9283 7.294C37.0363 7.462 37.0903 7.612 37.0903 7.744C37.0903 7.912 37.0423 8.074 36.9463 8.23C36.8503 8.386 36.7483 8.602 36.6403 8.878C36.5323 9.154 36.4783 9.562 36.4783 10.102C36.4783 10.282 36.4963 10.48 36.5323 10.696C36.5683 10.9 36.6463 11.074 36.7663 11.218C36.8863 11.362 37.0663 11.434 37.3063 11.434C37.5583 11.434 37.7983 11.338 38.0263 11.146C38.2543 10.942 38.4883 10.594 38.7283 10.102L38.9443 10.264C38.6803 10.888 38.3803 11.314 38.0443 11.542C37.7203 11.758 37.4143 11.866 37.1263 11.866C36.7303 11.866 36.4003 11.722 36.1363 11.434C35.8843 11.134 35.7043 10.708 35.5963 10.156C35.3083 10.72 34.9723 11.272 34.5883 11.812C34.2163 12.352 33.8203 12.802 33.4003 13.162C32.9923 13.522 32.5963 13.702 32.2123 13.702ZM39.6859 13.486C39.1939 13.486 38.8279 13.336 38.5879 13.036C38.3479 12.736 38.2279 12.376 38.2279 11.956C38.2279 11.68 38.2759 11.332 38.3719 10.912C38.4799 10.492 38.6179 10.054 38.7859 9.598C38.9539 9.13 39.1459 8.692 39.3619 8.284C39.5899 7.876 39.8299 7.546 40.0819 7.294C40.3459 7.03 40.6039 6.898 40.8559 6.898C40.9759 6.898 41.0779 6.934 41.1619 7.006C41.2459 7.078 41.2879 7.186 41.2879 7.33C41.2879 7.474 41.1919 7.708 40.9999 8.032C40.8199 8.356 40.6039 8.728 40.3519 9.148C40.1119 9.556 39.8959 9.988 39.7039 10.444C39.5239 10.9 39.4339 11.332 39.4339 11.74C39.4339 12.16 39.4999 12.442 39.6319 12.586C39.7759 12.718 39.9919 12.784 40.2799 12.784C40.6879 12.784 41.1259 12.58 41.5939 12.172C42.0619 11.764 42.5539 11.05 43.0699 10.03L43.2679 10.246C42.8959 11.278 42.3859 12.076 41.7379 12.64C41.0899 13.204 40.4059 13.486 39.6859 13.486ZM41.8279 5.296C41.6239 5.296 41.4379 5.248 41.2699 5.152C41.1139 5.044 41.0359 4.882 41.0359 4.666C41.0359 4.402 41.1859 4.174 41.4859 3.982C41.7859 3.79 42.0859 3.694 42.3859 3.694C42.5779 3.694 42.7339 3.736 42.8539 3.82C42.9859 3.904 43.0519 4.06 43.0519 4.288C43.0519 4.516 42.9199 4.744 42.6559 4.972C42.4039 5.188 42.1279 5.296 41.8279 5.296ZM44.2613 13.54C43.7213 13.54 43.3313 13.36 43.0913 13C42.8633 12.64 42.7493 12.184 42.7493 11.632C42.7493 11.068 42.8573 10.39 43.0733 9.598C43.2893 8.806 43.5713 7.978 43.9193 7.114C44.2793 6.238 44.6693 5.386 45.0893 4.558C45.5093 3.718 45.9293 2.962 46.3493 2.29C46.7813 1.606 47.1713 1.06 47.5193 0.651999C47.8793 0.243999 48.1673 0.0399995 48.3833 0.0399995C48.5273 0.0399995 48.6413 0.118 48.7253 0.274C48.8213 0.43 48.8933 0.616 48.9413 0.831999C49.0013 1.048 49.0313 1.246 49.0313 1.426C49.0313 1.738 48.9473 2.158 48.7793 2.686C48.6233 3.202 48.3953 3.778 48.0953 4.414C47.8073 5.038 47.4593 5.674 47.0513 6.322C46.6553 6.97 46.2173 7.594 45.7373 8.194C45.2573 8.782 44.7533 9.292 44.2253 9.724C44.1533 10.048 44.0933 10.366 44.0453 10.678C44.0093 10.99 43.9913 11.278 43.9913 11.542C43.9913 12.43 44.2553 12.874 44.7833 12.874C45.0593 12.874 45.3413 12.76 45.6293 12.532C45.9293 12.292 46.2113 11.986 46.4753 11.614C46.7393 11.23 46.9793 10.822 47.1953 10.39C47.3153 9.766 47.4953 9.1 47.7353 8.392C47.9753 7.672 48.2513 6.958 48.5633 6.25C48.8753 5.53 49.2053 4.84 49.5533 4.18C49.9133 3.52 50.2613 2.932 50.5973 2.416C50.9333 1.9 51.2453 1.498 51.5333 1.21C51.8333 0.91 52.0733 0.76 52.2533 0.76C52.3973 0.76 52.5113 0.838 52.5953 0.993999C52.6913 1.138 52.7633 1.324 52.8113 1.552C52.8713 1.768 52.9013 1.966 52.9013 2.146C52.9013 2.53 52.7993 3.04 52.5953 3.676C52.3913 4.3 52.0973 4.978 51.7133 5.71C51.3413 6.43 50.8853 7.144 50.3453 7.852C49.8173 8.56 49.2173 9.184 48.5453 9.724C48.4853 10.036 48.4313 10.348 48.3833 10.66C48.3473 10.96 48.3293 11.242 48.3293 11.506C48.3293 12.418 48.5873 12.874 49.1033 12.874C49.4273 12.874 49.7453 12.736 50.0573 12.46C50.3813 12.172 50.6813 11.806 50.9573 11.362C51.2453 10.918 51.4913 10.468 51.6953 10.012L52.0373 10.174C51.5453 11.218 51.0113 12.04 50.4353 12.64C49.8593 13.24 49.2413 13.54 48.5813 13.54C48.0053 13.54 47.6033 13.336 47.3753 12.928C47.1473 12.52 47.0513 12.004 47.0873 11.38C46.6673 12.052 46.2233 12.58 45.7553 12.964C45.2873 13.348 44.7893 13.54 44.2613 13.54ZM44.4413 8.986C44.8493 8.566 45.2453 8.092 45.6293 7.564C46.0133 7.024 46.3733 6.472 46.7093 5.908C47.0453 5.332 47.3393 4.78 47.5913 4.252C47.8433 3.724 48.0353 3.25 48.1673 2.83C48.3113 2.398 48.3833 2.062 48.3833 1.822C48.3833 1.726 48.3713 1.66 48.3473 1.624C48.3353 1.588 48.3173 1.57 48.2933 1.57C48.1973 1.57 48.0353 1.72 47.8073 2.02C47.5793 2.308 47.3153 2.704 47.0153 3.208C46.7153 3.7 46.4033 4.264 46.0793 4.9C45.7673 5.536 45.4673 6.208 45.1793 6.916C44.8913 7.612 44.6453 8.302 44.4413 8.986ZM48.7613 8.986C49.2653 8.47 49.7273 7.906 50.1473 7.294C50.5793 6.67 50.9513 6.052 51.2633 5.44C51.5873 4.828 51.8333 4.27 52.0013 3.766C52.1813 3.25 52.2713 2.842 52.2713 2.542C52.2713 2.446 52.2593 2.38 52.2353 2.344C52.2113 2.308 52.1933 2.29 52.1813 2.29C52.0613 2.29 51.8633 2.476 51.5873 2.848C51.3113 3.22 50.9993 3.73 50.6513 4.378C50.3153 5.014 49.9793 5.734 49.6433 6.538C49.3073 7.33 49.0133 8.146 48.7613 8.986ZM53.3066 13.792C52.5626 13.792 51.9986 13.588 51.6146 13.18C51.2306 12.772 51.0386 12.268 51.0386 11.668C51.0386 11.14 51.1706 10.576 51.4346 9.976C51.7106 9.376 52.0706 8.812 52.5146 8.284C52.9706 7.756 53.4686 7.33 54.0086 7.006C54.5606 6.682 55.1066 6.52 55.6466 6.52C55.9346 6.52 56.1986 6.598 56.4386 6.754C56.6906 6.898 56.8166 7.198 56.8166 7.654C56.8166 8.11 56.6846 8.536 56.4206 8.932C56.1566 9.328 55.8026 9.682 55.3586 9.994C54.9146 10.306 54.4286 10.564 53.9006 10.768C53.3846 10.96 52.8626 11.086 52.3346 11.146C52.3106 11.242 52.2926 11.338 52.2806 11.434C52.2806 11.518 52.2806 11.608 52.2806 11.704C52.2806 11.848 52.2926 12.004 52.3166 12.172C52.3526 12.34 52.4186 12.502 52.5146 12.658C52.6226 12.814 52.7666 12.94 52.9466 13.036C53.1386 13.132 53.3846 13.18 53.6846 13.18C54.2006 13.18 54.7106 13.036 55.2146 12.748C55.7186 12.46 56.1866 12.082 56.6186 11.614C57.0626 11.134 57.4346 10.606 57.7346 10.03L58.0046 10.228C57.6806 10.948 57.2666 11.578 56.7626 12.118C56.2586 12.646 55.7066 13.054 55.1066 13.342C54.5186 13.642 53.9186 13.792 53.3066 13.792ZM52.4606 10.696C52.7846 10.612 53.1446 10.468 53.5406 10.264C53.9366 10.06 54.3206 9.82 54.6926 9.544C55.0646 9.256 55.3706 8.944 55.6106 8.608C55.8506 8.26 55.9706 7.9 55.9706 7.528C55.9706 7.396 55.9466 7.3 55.8986 7.24C55.8506 7.18 55.7546 7.15 55.6106 7.15C55.3346 7.15 55.0346 7.258 54.7106 7.474C54.3986 7.678 54.0926 7.954 53.7926 8.302C53.5046 8.65 53.2406 9.034 53.0006 9.454C52.7606 9.862 52.5806 10.276 52.4606 10.696Z" fill="#C9AB81"/>
</svg>
