<svg width="23" height="10" viewBox="0 0 23 10" fill="none" xmlns="http://www.w3.org/2000/svg">
<path d="M7.5293 6.46094L7.95117 5.66406V10H7.5293V6.46094ZM8.37305 4.84375L8.79492 4.04688V10H8.37305V4.84375ZM9.2168 3.25L9.63867 2.44727V10H9.2168V3.25ZM6.38672 6.26172L6.14648 5.82227L9.05273 0.296875H9.52734L6.38672 6.26172ZM5.90039 5.3418L5.6543 4.89648L8.0918 0.296875H8.57227L5.90039 5.3418ZM3.07617 5.71094L3.49805 6.50781V10H3.07617V5.71094ZM2.23242 4.10547L2.6543 4.90234V10H2.23242V4.10547ZM1.38867 2.5L1.81055 3.30273V10H1.38867V2.5ZM4.79883 7.46875H4.32422L0.966797 1.09961V10H0.544922V0.296875H1.01953L4.79883 7.46875ZM5.75391 7.46875H5.27344L1.5 0.296875H1.98047L5.75391 7.46875ZM10.0605 1.09961L6.70312 7.46875H6.22266L2.45508 0.296875H2.92969L6.46875 7.02344L10.002 0.296875H10.4824V10H10.0605V1.09961ZM11.2676 0.296875H11.7246L15.334 9.43164L18.9434 0.296875H19.3945L15.5625 10H15.1055L11.2676 0.296875ZM15.627 7.89062L15.3867 8.42969L12.1758 0.296875H12.627L15.627 7.89062ZM16.0781 6.73633L15.8555 7.31641L13.084 0.296875H13.541L16.0781 6.73633ZM16.5234 5.56445L16.3008 6.15625L13.9922 0.296875H14.4434L16.5234 5.56445ZM21.6621 0.296875H22.1191L18.2812 10H17.8301L21.6621 0.296875ZM20.7598 0.296875H21.2109L17.373 10H16.9219L20.7598 0.296875ZM19.8457 0.296875H20.3027L16.4648 10H16.0137L19.8457 0.296875Z" fill="#C9AB81"/>
</svg>
